<svg width="23" height="16" viewBox="0 0 23 16" fill="none" xmlns="http://www.w3.org/2000/svg">
<path d="M15.0938 8.06259C15.0938 9.01571 14.7151 9.9298 14.0412 10.6038C13.3672 11.2777 12.4531 11.6563 11.5 11.6563C10.5469 11.6563 9.63279 11.2777 8.95884 10.6038C8.28488 9.9298 7.90625 9.01571 7.90625 8.06259C7.90625 7.10947 8.28488 6.19539 8.95884 5.52143C9.63279 4.84747 10.5469 4.46884 11.5 4.46884C12.4531 4.46884 13.3672 4.84747 14.0412 5.52143C14.7151 6.19539 15.0938 7.10947 15.0938 8.06259Z" fill="#D0D2D1"/>
<path fill-rule="evenodd" clip-rule="evenodd" d="M0 8.0625C0 8.0625 4.3125 0.15625 11.5 0.15625C18.6875 0.15625 23 8.0625 23 8.0625C23 8.0625 18.6875 15.9688 11.5 15.9688C4.3125 15.9688 0 8.0625 0 8.0625ZM11.5 13.0938C12.8344 13.0938 14.1141 12.5637 15.0576 11.6201C16.0012 10.6766 16.5312 9.39687 16.5312 8.0625C16.5312 6.72813 16.0012 5.44841 15.0576 4.50487C14.1141 3.56133 12.8344 3.03125 11.5 3.03125C10.1656 3.03125 8.88591 3.56133 7.94237 4.50487C6.99883 5.44841 6.46875 6.72813 6.46875 8.0625C6.46875 9.39687 6.99883 10.6766 7.94237 11.6201C8.88591 12.5637 10.1656 13.0938 11.5 13.0938Z" fill="#D0D2D1"/>
</svg>
