<svg xmlns="http://www.w3.org/2000/svg" viewBox="0 0 500 500" width="100%" height="100%">
  <path d="M 245 42 Q 220 42 200 57 Q 165 83 172 131 Q 175 152 195 168 Q 192 181 170 197 Q 134 223 103 264 Q 63 318 55 385 Q 50 428 61 465 Q 63 472 73 472 Q 133 463 213 457 Q 314 450 426 443 Q 448 442 453 441 Q 459 440 456 423 Q 443 350 405 285 Q 371 227 325 194 Q 303 178 303 167 Q 321 154 326 131 Q 333 87 304 59 Q 279 42 245 42 Z M 245 57 Q 273 57 292 72 Q 315 91 311 127 Q 307 149 288 163 Q 278 171 279 187 Q 281 202 305 214 Q 355 240 391 295 Q 426 349 439 418 Q 440 424 430 425 Q 350 431 230 439 Q 140 445 76 454 Q 71 455 69 446 Q 62 411 69 377 Q 77 321 113 273 Q 140 236 174 212 Q 199 194 195 180 Q 192 169 185 160 Q 162 143 158 123 Q 152 83 186 63 Q 212 48 245 57 Z" fill="#000000"/>
  
  <ellipse cx="214" cy="113" rx="11" ry="14" fill="#000000" transform="rotate(-5 214 113)"/>
  
  <ellipse cx="260" cy="110" rx="10" ry="13" fill="#000000" transform="rotate(8 260 110)"/>
  
  <path d="M 218 147 Q 223 175 250 173 Q 272 171 274 150 Q 275 144 266 146 Q 264 161 249 162 Q 232 163 227 146 Q 226 142 218 147 Z" fill="#000000"/>
</svg>
