<svg width="20" height="20" viewBox="0 0 20 20" fill="none" xmlns="http://www.w3.org/2000/svg">
<path d="M14.9696 17.5047C14.7257 15.5293 13.0414 14 11 14H9C6.95858 14 5.27433 15.5293 5.03036 17.5047M14.9696 17.5047C17.3986 15.893 19 13.1335 19 10C19 5.02944 14.9706 1 10 1C5.02944 1 1 5.02944 1 10C1 13.1335 2.60137 15.893 5.03036 17.5047M14.9696 17.5047C13.5456 18.4496 11.8371 19 10 19C8.16293 19 6.45441 18.4496 5.03036 17.5047M13 8C13 9.65685 11.6569 11 10 11C8.34315 11 7 9.65685 7 8C7 6.34315 8.34315 5 10 5C11.6569 5 13 6.34315 13 8Z" stroke="#B5B5B5" stroke-width="2" stroke-linecap="round" stroke-linejoin="round"/>
</svg>
